<?xml version="1.0" standalone="no"?>
<!DOCTYPE svg PUBLIC "-//W3C//DTD SVG 20010904//EN"
 "http://www.w3.org/TR/2001/REC-SVG-20010904/DTD/svg10.dtd">
<svg version="1.0" xmlns="http://www.w3.org/2000/svg"
 width="768.000000pt" height="512.000000pt" viewBox="0 0 768.000000 512.000000"
 preserveAspectRatio="xMidYMid meet">
<metadata>
Created by potrace 1.16, written by Peter Selinger 2001-2019
</metadata>
<g transform="translate(0.000000,512.000000) scale(0.100000,-0.100000)"
fill="#000000" stroke="none">
<path d="M0 2560 l0 -2560 356 0 356 0 -6 35 c-9 44 -105 233 -143 280 -8 10
-88 173 -103 210 -28 71 -53 168 -55 218 -2 52 7 76 17 45 6 -16 58 5 58 24 0
6 10 22 22 35 14 15 19 27 12 31 -5 4 -28 29 -49 56 -22 28 -66 76 -97 107
-31 32 -60 68 -64 81 -4 13 -17 37 -30 54 -13 17 -24 35 -24 40 0 5 -11 29
-24 54 -13 25 -26 56 -27 70 -2 14 -7 27 -11 30 -4 3 -10 32 -13 65 -4 33 -9
63 -11 67 -10 16 -5 428 6 533 16 155 45 305 81 420 5 17 16 53 24 80 30 97
68 188 85 204 52 50 58 53 80 41 16 -9 21 -18 17 -36 -2 -13 0 -24 4 -24 9 0
43 -58 44 -75 4 -51 56 -93 150 -121 88 -27 243 -24 370 5 55 13 111 25 125
28 14 2 71 15 127 29 63 15 133 24 180 24 74 0 80 2 106 30 16 17 35 30 43 30
8 0 14 4 14 9 0 6 13 18 30 27 16 10 34 30 40 45 7 15 19 29 29 32 38 9 56
173 31 282 -14 61 -58 155 -123 262 -39 64 -47 86 -39 96 19 22 -10 273 -30
261 -4 -3 -8 4 -8 14 0 31 -49 112 -64 106 -8 -3 -23 10 -36 30 -12 20 -49 57
-83 83 -34 26 -69 55 -77 64 -8 9 -55 50 -105 91 -49 42 -128 115 -175 164
-191 198 -217 224 -227 224 -5 0 -37 -18 -70 -39 l-61 -39 9 32 c14 52 52 123
121 229 21 32 38 60 38 62 0 3 9 14 20 25 12 12 20 33 20 52 0 17 3 28 7 25
11 -11 33 14 33 38 0 12 9 30 20 40 11 10 20 24 20 30 0 7 6 18 14 25 8 6 13
17 11 23 -3 7 15 34 40 60 25 26 45 55 45 65 0 14 -2 15 -10 2 -5 -8 -12 -11
-16 -7 -4 3 -1 13 6 22 11 13 -43 15 -509 15 l-521 0 0 -2560z m777 1563 c132
-147 183 -210 183 -226 0 -21 -56 -60 -72 -50 -7 4 -21 6 -31 5 -21 -4 -298
75 -311 89 -6 5 -18 9 -28 9 -18 0 -23 19 -18 85 6 82 93 174 166 175 27 0 43
-12 111 -87z m75 -940 c6 -73 14 -116 31 -155 29 -63 108 -147 169 -176 37
-19 39 -22 17 -22 -101 0 -226 49 -293 116 -130 128 -104 354 39 342 l30 -3 7
-102z m643 -241 c5 -12 13 -22 17 -22 5 0 8 -7 8 -16 0 -8 4 -13 9 -10 11 7
36 -22 27 -31 -4 -4 -15 -2 -26 4 -15 10 -19 9 -24 -3 -14 -35 -7 -47 23 -41
19 4 31 2 34 -6 4 -10 -12 -10 -77 0 -44 6 -98 12 -118 12 -21 1 -38 4 -38 9
0 13 134 132 145 129 5 -2 14 -13 20 -25z"/>
<path d="M4095 5106 c11 -7 38 -19 60 -27 38 -13 76 -39 58 -39 -4 0 3 -6 16
-13 14 -7 28 -26 33 -43 5 -21 14 -31 25 -30 13 1 20 -9 24 -34 6 -31 7 -33
14 -12 7 22 29 30 40 13 3 -5 1 -12 -5 -16 -5 -3 -10 -13 -10 -20 0 -11 8 -13
29 -9 36 7 78 -13 62 -29 -6 -6 -11 -24 -11 -39 0 -21 5 -28 20 -28 22 0 26
-22 12 -62 -5 -13 -5 -36 -1 -53 3 -16 7 -22 8 -13 1 12 7 16 19 12 16 -5 16
-4 -1 9 -14 12 -17 23 -12 50 8 41 31 56 40 26 5 -14 1 -25 -12 -34 -24 -17
-11 -30 16 -15 18 9 21 8 21 -10 0 -11 -5 -20 -10 -20 -6 0 -3 -11 6 -24 9
-15 21 -22 30 -19 9 3 14 -1 14 -12 0 -9 -4 -14 -9 -11 -5 3 -11 -12 -13 -33
-2 -28 0 -37 9 -34 7 3 13 2 13 -2 0 -10 -27 -35 -39 -35 -16 0 -13 -21 6 -42
13 -14 15 -23 7 -36 -8 -13 -6 -23 13 -42 18 -20 23 -21 23 -8 0 9 -4 20 -10
23 -5 3 -10 19 -10 34 0 15 -5 32 -11 38 -7 7 -6 12 4 16 14 5 24 -21 32 -78
1 -5 7 -21 12 -36 6 -14 8 -38 5 -55 -5 -27 -4 -28 13 -14 17 14 18 13 13 -8
-4 -12 -2 -20 2 -17 10 6 25 -33 22 -52 -2 -7 3 -13 10 -13 8 0 21 -8 30 -17
10 -10 29 -29 42 -42 14 -14 23 -28 20 -32 -3 -5 4 -14 16 -21 11 -7 20 -18
20 -24 0 -5 13 -23 29 -38 16 -16 27 -34 25 -40 -3 -7 16 -32 41 -55 25 -23
43 -46 41 -50 -7 -11 141 -151 259 -246 55 -44 109 -88 119 -97 20 -18 20 -18
0 -18 -15 0 -13 -3 9 -15 31 -16 162 -148 171 -171 3 -9 10 -13 14 -10 11 7
45 -30 111 -119 28 -38 58 -79 67 -90 8 -11 29 -65 46 -120 29 -90 32 -111 30
-209 -1 -59 -4 -111 -6 -115 -4 -6 -8 -65 -22 -321 -21 -391 -35 -520 -54
-520 -4 0 -13 -25 -20 -56 -8 -32 -21 -59 -31 -65 -10 -5 -16 -17 -14 -29 2
-10 -5 -30 -15 -43 -10 -13 -22 -35 -25 -50 -4 -14 -13 -31 -21 -38 -8 -6 -14
-19 -14 -28 0 -9 -11 -29 -25 -45 -13 -15 -31 -50 -40 -77 -9 -27 -21 -49 -26
-49 -5 0 -9 -9 -9 -19 0 -11 -4 -21 -8 -23 -5 -2 -24 -34 -42 -73 -18 -38 -39
-75 -45 -82 -7 -6 -20 -42 -29 -80 -10 -37 -22 -73 -27 -79 -5 -7 -11 -29 -12
-50 -2 -23 -7 -38 -14 -37 -19 4 -25 -33 -29 -181 -5 -171 -8 -206 -21 -214
-17 -11 -33 -49 -33 -76 0 -15 -9 -34 -20 -43 -11 -10 -23 -32 -26 -49 -3 -18
-12 -35 -19 -38 -7 -2 -20 -27 -30 -55 -9 -28 -22 -54 -28 -58 -14 -9 -53 -76
-68 -115 -7 -17 -18 -28 -29 -28 -11 0 -25 -13 -34 -30 l-14 -30 928 0 928 0
6 27 c14 56 50 168 56 173 4 3 10 29 13 59 7 58 22 85 44 77 10 -4 23 14 44
59 16 35 29 71 29 79 0 7 8 16 18 19 9 3 58 17 107 32 50 15 133 37 185 51 52
13 166 47 253 76 l157 52 0 2208 0 2208 -215 0 c-122 0 -215 -4 -215 -9 0 -5
14 -40 31 -78 109 -243 202 -534 239 -754 59 -340 66 -1100 14 -1434 -52 -331
-205 -674 -417 -932 -33 -40 -63 -73 -67 -73 -4 0 -13 -11 -20 -25 -7 -14 -21
-25 -31 -25 -10 0 -19 -10 -23 -25 -6 -25 -52 -63 -62 -52 -11 11 21 162 34
160 6 -2 18 19 26 45 7 26 19 46 25 45 7 -2 11 13 11 36 0 22 6 44 15 51 8 7
15 17 15 23 0 6 9 30 20 54 86 186 174 424 190 514 5 25 13 64 20 88 25 93
-16 45 -50 -59 -11 -36 -27 -78 -35 -95 -8 -16 -26 -61 -41 -99 -14 -38 -30
-77 -35 -85 -5 -9 -18 -36 -29 -61 -11 -25 -33 -70 -50 -100 -16 -30 -31 -59
-33 -65 -6 -17 -35 20 -47 61 -9 31 -8 61 4 146 17 115 15 134 -16 144 -15 5
-26 0 -39 -17 -10 -13 -19 -30 -19 -37 0 -24 -43 -103 -54 -99 -15 5 -64 97
-65 123 -1 21 -14 36 -69 80 -25 20 -32 33 -28 48 3 11 -1 27 -8 36 -19 21
-86 177 -86 199 0 10 -8 29 -19 42 -23 31 -45 95 -37 115 4 9 -3 18 -18 24
-14 5 -32 28 -45 57 -12 26 -29 62 -37 78 -8 17 -14 33 -14 38 0 4 -7 21 -16
38 -8 17 -13 33 -10 37 3 3 0 12 -7 21 -8 9 -22 37 -33 63 -12 29 -22 42 -26
35 -5 -8 -8 -4 -8 9 0 12 -33 89 -74 170 -104 208 -215 450 -312 679 -69 164
-171 360 -239 461 -67 97 -210 277 -289 362 l-39 42 -636 0 c-539 0 -632 -2
-616 -14z m2281 -3204 c4 -21 9 -44 12 -52 9 -33 3 -152 -12 -210 -22 -83 -70
-172 -118 -215 -42 -38 -55 -42 -83 -22 -17 13 -15 17 28 56 57 53 116 190
120 281 1 22 5 40 9 40 4 0 8 14 8 30 0 17 -4 30 -8 30 -4 0 -13 18 -19 40 -5
22 -6 40 -2 40 5 0 9 6 9 14 0 9 8 12 24 9 18 -4 26 -14 32 -41z m-245 -536
c12 -25 2 -48 -44 -111 -113 -153 -134 -198 -105 -227 12 -12 14 -24 8 -50
-11 -47 -21 -68 -32 -68 -5 0 -6 5 -3 10 4 6 -6 10 -24 10 -23 0 -29 4 -25 15
4 8 10 12 15 9 5 -3 6 2 3 10 -7 19 -40 21 -51 4 -4 -7 -8 -34 -9 -60 0 -39 2
-46 18 -45 10 1 16 7 14 13 -8 21 23 24 34 4 16 -30 12 -40 -15 -40 -25 0 -25
-1 -9 -25 15 -23 15 -25 0 -31 -13 -5 -14 -9 -5 -20 10 -12 9 -13 -5 -8 -9 3
-16 12 -16 20 0 20 -13 17 -28 -6 -10 -17 -10 -21 2 -26 24 -9 27 -33 5 -55
l-20 -20 25 -24 c32 -30 33 -47 4 -43 -17 2 -22 -2 -20 -13 4 -26 -23 -30 -47
-8 -19 18 -22 18 -27 4 -4 -9 1 -24 11 -35 20 -22 11 -48 -11 -29 -7 6 -11 15
-8 20 3 5 -2 9 -10 9 -19 0 -20 11 -3 29 10 11 3 12 -39 6 l-52 -7 -22 45
c-19 38 -22 56 -18 114 6 75 46 176 92 230 14 17 33 47 41 67 9 20 19 36 24
36 6 0 12 8 15 18 12 37 290 301 319 302 4 0 12 -11 18 -24z"/>
<path d="M6204 5043 c41 -43 90 -98 110 -123 20 -25 49 -61 65 -80 41 -51 140
-207 165 -260 11 -25 23 -47 26 -50 5 -5 71 -149 90 -195 24 -60 50 -145 56
-185 4 -25 11 -50 15 -56 5 -6 7 -13 4 -16 -3 -2 6 -58 19 -124 55 -270 61
-331 60 -639 0 -233 -3 -303 -16 -355 -41 -163 -45 -190 -40 -265 5 -84 17
-89 25 -10 2 28 14 106 25 175 44 269 47 310 47 630 0 255 -3 335 -18 420 -49
293 -126 495 -270 710 -48 72 -149 208 -192 259 -74 89 -148 171 -183 204 -72
65 -64 40 12 -40z"/>
<path d="M3855 3890 c-27 -4 -90 -15 -140 -24 -49 -9 -119 -21 -155 -26 -86
-12 -165 -28 -220 -46 -25 -7 -119 -25 -210 -39 -184 -28 -275 -47 -286 -58
-12 -12 -26 -8 -21 7 4 11 -1 11 -31 0 -21 -7 -47 -13 -59 -14 -12 0 -29 -7
-38 -17 -14 -14 -18 -14 -26 -2 -8 12 -12 11 -23 -3 -7 -10 -16 -15 -19 -12
-3 3 -14 1 -25 -5 -13 -7 -22 -7 -30 1 -8 8 -14 4 -22 -16 -5 -15 -10 -35 -10
-44 -1 -13 -4 -11 -14 7 -8 15 -16 20 -20 12 -4 -6 -4 -11 1 -11 4 0 1 -4 -7
-10 -9 -6 -17 -5 -23 3 -6 8 -7 6 -3 -6 3 -9 3 -31 0 -47 l-6 -29 -19 22 c-17
20 -18 20 -12 2 3 -11 10 -26 16 -32 5 -7 7 -20 3 -28 -4 -10 -2 -14 5 -9 7 4
10 1 7 -6 -4 -14 32 -57 44 -53 5 2 8 -2 8 -8 0 -5 5 -7 10 -4 6 3 10 2 10 -3
0 -5 15 -13 33 -18 39 -12 275 0 289 14 6 6 16 8 22 6 24 -9 243 48 478 125
84 27 171 55 193 61 100 27 290 62 388 71 189 16 288 -14 499 -154 101 -67
369 -263 408 -298 9 -8 36 -30 60 -49 25 -19 56 -45 70 -56 130 -112 150 -126
150 -107 0 17 -97 149 -171 233 -76 86 -146 156 -369 367 -259 245 -287 267
-383 298 -51 16 -256 19 -352 5z"/>
<path d="M2003 3766 c3 -8 -3 -22 -13 -31 -32 -29 -75 -192 -56 -213 27 -28
34 -40 29 -46 -4 -3 3 -6 15 -6 11 0 25 -7 29 -15 5 -9 13 -11 22 -6 11 7 9
10 -8 16 -24 7 -27 27 -8 47 7 7 11 35 11 63 -1 28 -2 85 -3 128 -1 49 -5 77
-12 77 -6 0 -9 -6 -6 -14z"/>
<path d="M2989 3327 c-8 -7 -30 -17 -49 -21 -19 -4 -49 -15 -67 -24 -17 -9
-52 -28 -77 -41 -25 -13 -43 -28 -40 -33 3 -4 0 -8 -7 -8 -10 0 -45 -34 -74
-72 -19 -24 -34 -83 -36 -137 -2 -46 1 -57 19 -69 12 -8 22 -23 22 -33 0 -10
5 -21 11 -24 5 -4 8 -12 6 -18 -2 -7 4 -29 15 -50 11 -22 17 -45 14 -52 -2 -7
0 -17 6 -23 7 -7 7 -20 -1 -43 -15 -43 -14 -52 4 -45 19 7 20 -22 1 -43 -8 -9
-17 -28 -21 -42 -5 -22 -2 -27 17 -33 13 -3 34 -6 46 -6 14 0 22 -5 20 -12 -6
-16 -71 -19 -80 -4 -5 6 -8 -1 -8 -16 0 -30 40 -82 79 -103 14 -7 53 -41 86
-74 33 -33 65 -61 70 -61 6 0 19 -13 28 -30 10 -16 32 -39 50 -52 18 -12 34
-25 37 -28 25 -28 216 -130 244 -130 7 0 20 -8 30 -19 10 -11 25 -16 40 -14
13 3 27 0 30 -6 4 -6 22 -11 41 -11 19 0 46 -5 62 -11 28 -12 325 -15 342 -4
5 3 11 1 13 -5 2 -6 15 -7 38 -1 19 5 58 12 85 16 28 3 61 9 75 12 24 6 168
65 200 82 67 35 183 103 190 111 5 5 63 38 90 51 86 40 190 94 190 99 0 3 14
14 30 23 34 20 38 41 13 56 -16 9 -15 11 7 11 23 1 23 2 5 10 -11 5 -14 9 -7
9 6 1 15 1 20 2 4 0 14 6 22 13 8 7 49 30 90 51 102 51 187 115 152 115 -4 0
-34 -9 -65 -20 -62 -22 -77 -20 -77 10 0 10 -5 22 -10 25 -6 4 -8 10 -6 14 10
15 -86 101 -173 156 -9 6 -20 16 -24 23 -4 6 -14 12 -20 12 -7 0 -28 16 -47
35 -19 19 -40 35 -47 35 -6 0 -18 6 -25 13 -7 6 -42 30 -78 51 -36 22 -67 43
-70 46 -6 8 -58 37 -82 46 -10 3 -18 13 -18 20 0 8 -10 14 -25 14 -14 0 -48
11 -77 25 -28 14 -58 25 -65 25 -8 0 -24 6 -36 14 -12 7 -47 17 -77 20 -30 4
-80 15 -110 26 -109 37 -173 53 -215 54 -24 0 -41 4 -38 9 2 4 -7 7 -20 7 -13
0 -27 3 -31 8 -4 4 -26 7 -49 8 -22 0 -43 6 -45 12 -2 7 -25 12 -58 12 -31 0
-65 5 -77 12 -12 7 -40 12 -62 13 -22 0 -39 5 -38 10 1 6 -55 11 -146 13 -118
3 -151 1 -162 -11z m239 -619 c6 -18 13 -57 17 -86 18 -157 109 -265 252 -302
l38 -9 -45 3 c-61 6 -203 61 -376 148 -45 22 -74 62 -74 101 0 14 -4 29 -10
32 -16 10 -11 50 8 63 131 90 175 101 190 50z m852 -238 c26 -36 23 -57 -10
-81 -38 -29 -189 -78 -255 -84 -52 -4 -56 -4 -26 6 49 15 104 53 148 100 92
100 108 107 143 59z"/>
<path d="M1058 1376 c-15 -8 -30 -11 -34 -8 -5 4 -2 -2 6 -13 8 -11 25 -28 38
-38 19 -16 22 -28 22 -81 0 -48 5 -69 20 -88 10 -14 17 -28 14 -30 -2 -3 12
-18 33 -34 21 -15 53 -43 72 -60 48 -44 95 -66 247 -114 l132 -42 40 44 c72
78 149 86 321 33 140 -43 212 -46 287 -11 55 26 91 66 123 136 25 55 18 65
-15 22 -14 -18 -30 -30 -35 -27 -5 4 -9 2 -9 -3 0 -6 -23 -22 -52 -37 -78 -41
-129 -33 -209 33 -73 59 -162 107 -239 127 -66 18 -213 21 -190 4 12 -9 11
-10 -7 -6 -12 3 -36 -4 -53 -14 -17 -11 -35 -17 -41 -14 -5 4 -9 2 -9 -3 0
-12 -40 -28 -65 -27 -56 3 -129 39 -188 95 -34 32 -65 56 -69 54 -4 -3 -5 3
-1 12 4 11 3 15 -5 10 -7 -4 -26 14 -49 44 -41 55 -45 57 -85 36z"/>
<path d="M625 920 c3 -5 -6 -15 -21 -23 -17 -9 -23 -17 -15 -21 6 -4 11 -16
11 -27 0 -19 45 -110 88 -179 12 -19 34 -59 49 -89 16 -30 49 -75 74 -100 66
-66 83 -96 103 -186 17 -71 47 -193 63 -250 13 -47 -15 -45 750 -45 406 0 722
4 719 9 -6 9 89 31 136 31 21 0 28 -5 28 -20 0 -18 7 -20 69 -20 l69 0 8 33
c9 42 6 105 -8 131 -21 42 -70 77 -120 86 -56 11 -131 -1 -155 -25 -8 -9 -33
-15 -58 -15 -84 0 -219 57 -477 201 -287 160 -295 164 -408 162 -86 -1 -99 1
-140 25 -25 14 -50 31 -57 38 -7 6 -33 22 -58 34 -44 21 -52 22 -188 13 -195
-12 -188 -14 -221 63 -28 64 -75 113 -123 128 -13 4 -23 13 -23 21 0 17 -26
26 -56 19 -14 -4 -24 -2 -24 5 0 6 -5 11 -11 11 -5 0 -8 -4 -4 -10z m990 -702
c6 -2 50 -6 100 -7 49 -1 92 -4 95 -6 3 -1 27 -6 54 -9 73 -10 85 -19 77 -58
-9 -42 -51 -69 -75 -49 -9 7 -17 28 -17 45 -1 24 -3 26 -6 8 -5 -28 -44 -55
-67 -46 -9 3 -16 1 -16 -5 0 -6 -7 -11 -15 -11 -9 0 -12 6 -9 15 5 11 2 14
-12 9 -11 -4 -25 -12 -33 -18 -11 -9 -13 -8 -9 4 3 8 -2 23 -10 33 -15 16 -17
16 -39 -5 -19 -18 -23 -19 -23 -5 0 9 -9 21 -20 27 -11 6 -17 16 -14 25 7 17
-11 21 -21 5 -10 -17 -25 -11 -25 9 0 11 -4 23 -10 26 -21 13 -8 20 38 19 26
0 52 -3 57 -6z"/>
</g>
</svg>
